# xmcd
#
# Track frame offsets: 
#        150
#        4785
#        13706
#        26338
#        38531
#        57698
#        70249
#        84851
#        100529
#        114282
#        115805
#        123605
#        142973
#        145238
#        162050
#        179878
#        180850
#        198786
#        212990
#        214725
#        228744
#        248668
#        264571
#        271671
#        292080
#        309736
#
# Disc length: 4258 seconds
#
# Revision: 1
# Processed by: cddbd v1.5.2PL0 Copyright (c) Steve Scherf et al.
# Submitted via: ExactAudioCopy v0.99pb5
#
DISCID=6d10a01a
DTITLE=(Hed) P.E. - New World Orphans (Black)
DYEAR=2009
DGENRE=Crossover
TTITLE0=New World Intro
TTITLE1=Live Or Die Free
TTITLE2=Bloodfire
TTITLE3=Ordo (Ab Chao)
TTITLE4=Stay Ready (Feat. Dirtball)
TTITLE5=Family
TTITLE6=Stepping Stone
TTITLE7=Renegade
TTITLE8=Everything All The Time
TTITLE9=Mortgage Crisis Intro
TTITLE10=Middle Class Blues
TTITLE11=Flesh And Blood
TTITLE12=Nibiru Intro
TTITLE13=Planet X
TTITLE14=Higher Ground (Feat. Kottonmouth Kings)
TTITLE15=A Soldiers Intro
TTITLE16=Tow The Line
TTITLE17=Self Aware
TTITLE18=Lost History Intro
TTITLE19=This Love
TTITLE20=Work On This (Feat. Tech N9ne)
TTITLE21=Babylon Fall
TTITLE22=Bucky Lasek
TTITLE23=Don't Fuck With Us
TTITLE24=Unknown
TTITLE25=Unknown
EXTD=
EXTT0=
EXTT1=
EXTT2=
EXTT3=
EXTT4=
EXTT5=
EXTT6=
EXTT7=
EXTT8=
EXTT9=
EXTT10=
EXTT11=
EXTT12=
EXTT13=
EXTT14=
EXTT15=
EXTT16=
EXTT17=
EXTT18=
EXTT19=
EXTT20=
EXTT21=
EXTT22=
EXTT23=
EXTT24=
EXTT25=
PLAYORDER=
